<!DOCTYPE svg PUBLIC "-//W3C//DTD SVG 20010904//EN"
 "http://www.w3.org/TR/2001/REC-SVG-20010904/DTD/svg10.dtd">
<svg version="1.0" xmlns="http://www.w3.org/2000/svg"
 width="1024.000000pt" height="1024.000000pt" viewBox="0 0 1024.000000 1024.000000"
 preserveAspectRatio="xMidYMid meet">

<g transform="translate(0.000000,1024.000000) scale(0.100000,-0.100000)"
fill="#000000" stroke="none">
<path d="M4342 6840 c-320 -45 -523 -211 -621 -505 -69 -207 -68 -438 1 -655
81 -252 202 -406 570 -724 221 -189 321 -307 398 -467 86 -179 93 -385 19
-519 -65 -118 -261 -156 -414 -81 -67 33 -102 74 -131 151 -20 55 -30 266 -17
363 5 37 7 69 4 71 -6 3 -504 -25 -508 -28 -12 -11 -25 -192 -20 -281 20 -382
238 -661 582 -747 121 -30 380 -32 497 -5 313 73 496 264 564 587 22 104 25
354 6 445 -49 225 -165 432 -344 613 -46 46 -162 153 -259 237 -96 84 -206
186 -244 226 -113 122 -185 248 -215 378 -18 76 -8 230 19 302 48 126 114 178
242 187 210 15 319 -121 319 -396 l0 -104 78 7 c42 4 150 13 239 19 89 6 166
15 170 20 4 4 8 67 7 139 -1 113 -5 145 -28 222 -86 287 -252 452 -525 521
-107 27 -286 38 -389 24z"/>
<path d="M282 6578 l3 -233 292 -3 293 -2 0 -619 0 -619 35 -31 c45 -39 94
-64 189 -96 66 -22 237 -55 289 -55 16 0 17 40 17 710 l0 710 290 0 290 0 -2
233 -3 232 -848 3 -847 2 2 -232z"/>
<path d="M5510 5120 l0 -1690 260 0 260 0 0 523 0 522 70 128 c38 70 86 159
106 198 20 38 40 66 44 62 4 -4 17 -35 29 -68 12 -33 131 -350 263 -705 132
-355 243 -648 247 -653 4 -4 129 -6 278 -5 l271 3 -110 275 c-60 151 -168 426
-240 610 -161 415 -181 466 -258 665 -35 88 -84 217 -111 287 l-48 128 43 82
c24 46 139 268 256 493 117 226 261 503 321 617 60 113 109 209 109 212 0 3
-120 6 -268 6 l-267 0 -365 -727 -365 -728 -3 728 -2 727 -260 0 -260 0 0
-1690z"/>
<path d="M7470 5120 l0 -1690 265 0 265 0 -2 1688 -3 1687 -262 3 -263 2 0
-1690z"/>
<path d="M8115 6798 c147 -452 366 -1149 617 -1958 l63 -205 3 -602 3 -603
260 0 259 0 0 596 0 596 54 171 c148 468 569 1777 621 1926 14 41 25 78 25 83
0 11 -517 10 -525 -1 -5 -10 -77 -253 -291 -991 -63 -217 -118 -406 -123 -420
-7 -22 -12 -14 -34 60 -26 85 -316 1109 -359 1270 l-24 85 -277 3 c-219 2
-276 0 -272 -10z"/>
<path d="M3240 4659 c-63 -21 -172 -54 -242 -75 -77 -22 -128 -42 -128 -49 0
-18 -23 -25 -77 -25 -25 0 -109 -15 -187 -34 -234 -57 -662 -136 -742 -136
-45 -1 -35 43 -163 -673 -23 -125 -41 -229 -41 -232 0 -3 110 -5 245 -5 135 0
245 3 245 8 0 9 88 538 96 575 l6 27 347 0 348 0 49 -302 50 -303 263 -3 263
-2 -4 27 c-86 525 -202 1212 -207 1224 -5 14 -20 12 -121 -22z"/>
<path d="M870 3881 l0 -451 258 0 259 0 6 188 c9 237 9 493 0 600 l-6 82 -91
0 c-94 0 -282 13 -373 26 l-53 7 0 -452z"/>
</g>
</svg>
